<svg width="2400" height="1600" viewBox="0 0 2400 1600" xmlns="http://www.w3.org/2000/svg">
<defs>
  <pattern id="dots" width="32" height="32" patternUnits="userSpaceOnUse">
    <circle cx="1" cy="1" r="0.9" fill="rgba(100,160,220,0.10)"/>
  </pattern>
</defs>

<rect width="2400" height="1600" fill="#080C14"/>
<rect width="2400" height="1600" fill="url(#dots)"/>

<!-- ══ CARD TEMPLATE: w=155, h=88, image slot h=32, text below ══ -->

<!-- ══════════════════════════════════ -->
<!-- ANIMATION & RIGGING — left       -->
<!-- ══════════════════════════════════ -->
<rect x="52" y="132" width="262" height="662" rx="90" fill="rgba(74,21,40,0.15)" stroke="#7EC8E3" stroke-width="1.2"/>
<rect x="120" y="60" width="220" height="205" rx="70" fill="rgba(74,21,40,0.15)" stroke="#7EC8E3" stroke-width="1.2"/>
<rect x="262" y="350" width="145" height="180" rx="55" fill="rgba(74,21,40,0.15)" stroke="#7EC8E3" stroke-width="1.2"/>
<rect x="55" y="712" width="163" height="163" rx="55" fill="rgba(74,21,40,0.15)" stroke="#7EC8E3" stroke-width="1.2"/>
<text x="175" y="125" text-anchor="middle" font-family="sans-serif" font-size="15" font-weight="700" fill="#7EC8E3" letter-spacing="2">ANIMATION &amp; RIGGING</text>

<!-- cards: x,y  w=155 h=88 -->
<g transform="translate(62,185)"><rect width="155" height="88" rx="10" fill="rgba(126,200,227,0.05)" stroke="#7EC8E380" stroke-width="0.8"/><rect x="5" y="5" width="145" height="38" rx="7" fill="rgba(255,255,255,0.04)" stroke="#7EC8E330" stroke-width="0.6"/><text x="77" y="55" text-anchor="middle" font-family="sans-serif" font-size="11" font-weight="600" fill="#F4C0D1">Life Giver</text><text x="77" y="69" text-anchor="middle" font-family="sans-serif" font-size="8.5" fill="#7EC8E370">Character animation</text></g>
<g transform="translate(67,285)"><rect width="155" height="88" rx="10" fill="rgba(126,200,227,0.05)" stroke="#7EC8E380" stroke-width="0.8"/><rect x="5" y="5" width="145" height="38" rx="7" fill="rgba(255,255,255,0.04)" stroke="#7EC8E330" stroke-width="0.6"/><text x="77" y="55" text-anchor="middle" font-family="sans-serif" font-size="11" font-weight="600" fill="#F4C0D1">Curve Sculptor</text><text x="77" y="69" text-anchor="middle" font-family="sans-serif" font-size="8.5" fill="#7EC8E370">Animation curves</text></g>
<g transform="translate(60,385)"><rect width="165" height="88" rx="10" fill="rgba(126,200,227,0.05)" stroke="#7EC8E380" stroke-width="0.8"/><rect x="5" y="5" width="155" height="38" rx="7" fill="rgba(255,255,255,0.04)" stroke="#7EC8E330" stroke-width="0.6"/><text x="82" y="55" text-anchor="middle" font-family="sans-serif" font-size="10.5" font-weight="600" fill="#F4C0D1">State Machine Designer</text><text x="82" y="69" text-anchor="middle" font-family="sans-serif" font-size="8.5" fill="#7EC8E370">Anim systems in engines</text></g>
<g transform="translate(65,485)"><rect width="155" height="88" rx="10" fill="rgba(126,200,227,0.05)" stroke="#7EC8E380" stroke-width="0.8"/><rect x="5" y="5" width="145" height="38" rx="7" fill="rgba(255,255,255,0.04)" stroke="#7EC8E330" stroke-width="0.6"/><text x="77" y="55" text-anchor="middle" font-family="sans-serif" font-size="11" font-weight="600" fill="#F4C0D1">Motion Poet</text><text x="77" y="69" text-anchor="middle" font-family="sans-serif" font-size="8.5" fill="#7EC8E370">Motion graphics &amp; AV</text></g>
<g transform="translate(62,582)"><rect width="165" height="88" rx="10" fill="rgba(126,200,227,0.05)" stroke="#7EC8E380" stroke-width="0.8"/><rect x="5" y="5" width="155" height="38" rx="7" fill="rgba(255,255,255,0.04)" stroke="#7EC8E330" stroke-width="0.6"/><text x="82" y="55" text-anchor="middle" font-family="sans-serif" font-size="11" font-weight="600" fill="#F4C0D1">Prop Choreographer</text><text x="82" y="69" text-anchor="middle" font-family="sans-serif" font-size="8.5" fill="#7EC8E370">Objects &amp; vehicles</text></g>
<g transform="translate(65,678)"><rect width="160" height="88" rx="10" fill="rgba(126,200,227,0.05)" stroke="#7EC8E380" stroke-width="0.8"/><rect x="5" y="5" width="150" height="38" rx="7" fill="rgba(255,255,255,0.04)" stroke="#7EC8E330" stroke-width="0.6"/><text x="80" y="55" text-anchor="middle" font-family="sans-serif" font-size="11" font-weight="600" fill="#F4C0D1">Timing Architect</text><text x="80" y="69" text-anchor="middle" font-family="sans-serif" font-size="8.5" fill="#7EC8E370">Game feel &amp; readability</text></g>

<!-- ══════════════════════════════════ -->
<!-- TECHNICAL ART & PIPELINE — top   -->
<!-- ══════════════════════════════════ -->
<rect x="500" y="55" width="700" height="270" rx="80" fill="rgba(4,44,83,0.15)" stroke="#7EC8E3" stroke-width="1.2"/>
<rect x="620" y="25" width="388" height="138" rx="55" fill="rgba(4,44,83,0.15)" stroke="#7EC8E3" stroke-width="1.2"/>
<rect x="1138" y="105" width="180" height="180" rx="60" fill="rgba(4,44,83,0.15)" stroke="#7EC8E3" stroke-width="1.2"/>
<rect x="496" y="270" width="263" height="125" rx="50" fill="rgba(4,44,83,0.15)" stroke="#7EC8E3" stroke-width="1.2"/>
<text x="820" y="20" text-anchor="middle" font-family="sans-serif" font-size="15" font-weight="700" fill="#7EC8E3" letter-spacing="2">TECHNICAL ART &amp; PIPELINE</text>

<!-- 11 cards in 3 rows -->
<g transform="translate(508,50)"><rect width="155" height="88" rx="10" fill="rgba(126,200,227,0.05)" stroke="#7EC8E380" stroke-width="0.8"/><rect x="5" y="5" width="145" height="38" rx="7" fill="rgba(255,255,255,0.04)" stroke="#7EC8E330" stroke-width="0.6"/><text x="77" y="55" text-anchor="middle" font-family="sans-serif" font-size="11" font-weight="600" fill="#B5D4F4">Tool Forger</text><text x="77" y="69" text-anchor="middle" font-family="sans-serif" font-size="8.5" fill="#7EC8E370">Custom tools &amp; scripts</text></g>
<g transform="translate(675,45)"><rect width="155" height="88" rx="10" fill="rgba(126,200,227,0.05)" stroke="#7EC8E380" stroke-width="0.8"/><rect x="5" y="5" width="145" height="38" rx="7" fill="rgba(255,255,255,0.04)" stroke="#7EC8E330" stroke-width="0.6"/><text x="77" y="55" text-anchor="middle" font-family="sans-serif" font-size="11" font-weight="600" fill="#B5D4F4">Bridge Builder</text><text x="77" y="69" text-anchor="middle" font-family="sans-serif" font-size="8.5" fill="#7EC8E370">App connectors</text></g>
<g transform="translate(845,50)"><rect width="165" height="88" rx="10" fill="rgba(126,200,227,0.05)" stroke="#7EC8E380" stroke-width="0.8"/><rect x="5" y="5" width="155" height="38" rx="7" fill="rgba(255,255,255,0.04)" stroke="#7EC8E330" stroke-width="0.6"/><text x="82" y="55" text-anchor="middle" font-family="sans-serif" font-size="10.5" font-weight="600" fill="#B5D4F4">Bottleneck Buster</text><text x="82" y="69" text-anchor="middle" font-family="sans-serif" font-size="8.5" fill="#7EC8E370">Bottleneck removal</text></g>
<g transform="translate(1022,50)"><rect width="155" height="88" rx="10" fill="rgba(126,200,227,0.05)" stroke="#7EC8E380" stroke-width="0.8"/><rect x="5" y="5" width="145" height="38" rx="7" fill="rgba(255,255,255,0.04)" stroke="#7EC8E330" stroke-width="0.6"/><text x="77" y="55" text-anchor="middle" font-family="sans-serif" font-size="10.5" font-weight="600" fill="#B5D4F4">Batch Commander</text><text x="77" y="69" text-anchor="middle" font-family="sans-serif" font-size="8.5" fill="#7EC8E370">Mass asset processing</text></g>
<g transform="translate(510,150)"><rect width="155" height="88" rx="10" fill="rgba(126,200,227,0.05)" stroke="#7EC8E380" stroke-width="0.8"/><rect x="5" y="5" width="145" height="38" rx="7" fill="rgba(255,255,255,0.04)" stroke="#7EC8E330" stroke-width="0.6"/><text x="77" y="55" text-anchor="middle" font-family="sans-serif" font-size="11" font-weight="600" fill="#B5D4F4">Naming Sheriff</text><text x="77" y="69" text-anchor="middle" font-family="sans-serif" font-size="8.5" fill="#7EC8E370">Naming conventions</text></g>
<g transform="translate(678,145)"><rect width="155" height="88" rx="10" fill="rgba(126,200,227,0.05)" stroke="#7EC8E380" stroke-width="0.8"/><rect x="5" y="5" width="145" height="38" rx="7" fill="rgba(255,255,255,0.04)" stroke="#7EC8E330" stroke-width="0.6"/><text x="77" y="55" text-anchor="middle" font-family="sans-serif" font-size="11" font-weight="600" fill="#B5D4F4">Time Observer</text><text x="77" y="69" text-anchor="middle" font-family="sans-serif" font-size="8.5" fill="#7EC8E370">Production logging</text></g>
<g transform="translate(848,150)"><rect width="155" height="88" rx="10" fill="rgba(126,200,227,0.05)" stroke="#7EC8E380" stroke-width="0.8"/><rect x="5" y="5" width="145" height="38" rx="7" fill="rgba(255,255,255,0.04)" stroke="#7EC8E330" stroke-width="0.6"/><text x="77" y="55" text-anchor="middle" font-family="sans-serif" font-size="11" font-weight="600" fill="#B5D4F4">Asset Shepherd</text><text x="77" y="69" text-anchor="middle" font-family="sans-serif" font-size="8.5" fill="#7EC8E370">Asset tracking</text></g>
<g transform="translate(1015,145)"><rect width="158" height="88" rx="10" fill="rgba(126,200,227,0.05)" stroke="#7EC8E380" stroke-width="0.8"/><rect x="5" y="5" width="148" height="38" rx="7" fill="rgba(255,255,255,0.04)" stroke="#7EC8E330" stroke-width="0.6"/><text x="79" y="55" text-anchor="middle" font-family="sans-serif" font-size="10.5" font-weight="600" fill="#B5D4F4">Format Translator</text><text x="79" y="69" text-anchor="middle" font-family="sans-serif" font-size="8.5" fill="#7EC8E370">3D format interchange</text></g>
<g transform="translate(510,248)"><rect width="168" height="88" rx="10" fill="rgba(126,200,227,0.05)" stroke="#7EC8E380" stroke-width="0.8"/><rect x="5" y="5" width="158" height="38" rx="7" fill="rgba(255,255,255,0.04)" stroke="#7EC8E330" stroke-width="0.6"/><text x="84" y="55" text-anchor="middle" font-family="sans-serif" font-size="10.5" font-weight="600" fill="#B5D4F4">Style Guide Keeper</text><text x="84" y="69" text-anchor="middle" font-family="sans-serif" font-size="8.5" fill="#7EC8E370">Technical art bibles</text></g>
<g transform="translate(692,252)"><rect width="130" height="88" rx="10" fill="rgba(126,200,227,0.05)" stroke="#7EC8E380" stroke-width="0.8"/><rect x="5" y="5" width="120" height="38" rx="7" fill="rgba(255,255,255,0.04)" stroke="#7EC8E330" stroke-width="0.6"/><text x="65" y="55" text-anchor="middle" font-family="sans-serif" font-size="11" font-weight="600" fill="#B5D4F4">QA Eye</text><text x="65" y="69" text-anchor="middle" font-family="sans-serif" font-size="8.5" fill="#7EC8E370">Quality review</text></g>
<g transform="translate(836,248)"><rect width="130" height="88" rx="10" fill="rgba(126,200,227,0.05)" stroke="#7EC8E380" stroke-width="0.8"/><rect x="5" y="5" width="120" height="38" rx="7" fill="rgba(255,255,255,0.04)" stroke="#7EC8E330" stroke-width="0.6"/><text x="65" y="55" text-anchor="middle" font-family="sans-serif" font-size="11" font-weight="600" fill="#B5D4F4">Profiler</text><text x="65" y="69" text-anchor="middle" font-family="sans-serif" font-size="8.5" fill="#7EC8E370">Performance optim.</text></g>

<!-- ══════════════════════════════════ -->
<!-- 3D ART — top right               -->
<!-- ══════════════════════════════════ -->
<rect x="1370" y="45" width="375" height="280" rx="75" fill="rgba(4,52,44,0.15)" stroke="#7EC8E3" stroke-width="1.2"/>
<rect x="1480" y="20" width="220" height="145" rx="55" fill="rgba(4,52,44,0.15)" stroke="#7EC8E3" stroke-width="1.2"/>
<rect x="1690" y="120" width="155" height="188" rx="50" fill="rgba(4,52,44,0.15)" stroke="#7EC8E3" stroke-width="1.2"/>
<text x="1565" y="18" text-anchor="middle" font-family="sans-serif" font-size="15" font-weight="700" fill="#7EC8E3" letter-spacing="2">3D ART</text>

<g transform="translate(1378,50)"><rect width="155" height="88" rx="10" fill="rgba(126,200,227,0.05)" stroke="#7EC8E380" stroke-width="0.8"/><rect x="5" y="5" width="145" height="38" rx="7" fill="rgba(255,255,255,0.04)" stroke="#7EC8E330" stroke-width="0.6"/><text x="77" y="55" text-anchor="middle" font-family="sans-serif" font-size="11" font-weight="600" fill="#9FE1CB">UV Knife</text><text x="77" y="69" text-anchor="middle" font-family="sans-serif" font-size="8.5" fill="#7EC8E370">UV unwrapping</text></g>
<g transform="translate(1545,45)"><rect width="155" height="88" rx="10" fill="rgba(126,200,227,0.05)" stroke="#7EC8E380" stroke-width="0.8"/><rect x="5" y="5" width="145" height="38" rx="7" fill="rgba(255,255,255,0.04)" stroke="#7EC8E330" stroke-width="0.6"/><text x="77" y="55" text-anchor="middle" font-family="sans-serif" font-size="11" font-weight="600" fill="#9FE1CB">Poly Surgeon</text><text x="77" y="69" text-anchor="middle" font-family="sans-serif" font-size="8.5" fill="#7EC8E370">Clean modeling</text></g>
<g transform="translate(1712,50)"><rect width="155" height="88" rx="10" fill="rgba(126,200,227,0.05)" stroke="#7EC8E380" stroke-width="0.8"/><rect x="5" y="5" width="145" height="38" rx="7" fill="rgba(255,255,255,0.04)" stroke="#7EC8E330" stroke-width="0.6"/><text x="77" y="55" text-anchor="middle" font-family="sans-serif" font-size="10" font-weight="600" fill="#9FE1CB">Procedural Garden</text><text x="77" y="69" text-anchor="middle" font-family="sans-serif" font-size="8.5" fill="#7EC8E370">Procedural assets</text></g>
<g transform="translate(1380,150)"><rect width="158" height="88" rx="10" fill="rgba(126,200,227,0.05)" stroke="#7EC8E380" stroke-width="0.8"/><rect x="5" y="5" width="148" height="38" rx="7" fill="rgba(255,255,255,0.04)" stroke="#7EC8E330" stroke-width="0.6"/><text x="79" y="55" text-anchor="middle" font-family="sans-serif" font-size="10.5" font-weight="600" fill="#9FE1CB">Surface Whisperer</text><text x="79" y="69" text-anchor="middle" font-family="sans-serif" font-size="8.5" fill="#7EC8E370">Materials &amp; look dev</text></g>
<g transform="translate(1550,145)"><rect width="155" height="88" rx="10" fill="rgba(126,200,227,0.05)" stroke="#7EC8E380" stroke-width="0.8"/><rect x="5" y="5" width="145" height="38" rx="7" fill="rgba(255,255,255,0.04)" stroke="#7EC8E330" stroke-width="0.6"/><text x="77" y="55" text-anchor="middle" font-family="sans-serif" font-size="11" font-weight="600" fill="#9FE1CB">Light Reader</text><text x="77" y="69" text-anchor="middle" font-family="sans-serif" font-size="8.5" fill="#7EC8E370">Real-time lighting</text></g>
<g transform="translate(1712,148)"><rect width="155" height="88" rx="10" fill="rgba(126,200,227,0.05)" stroke="#7EC8E380" stroke-width="0.8"/><rect x="5" y="5" width="145" height="38" rx="7" fill="rgba(255,255,255,0.04)" stroke="#7EC8E330" stroke-width="0.6"/><text x="77" y="55" text-anchor="middle" font-family="sans-serif" font-size="10.5" font-weight="600" fill="#9FE1CB">Atlas Architect</text><text x="77" y="69" text-anchor="middle" font-family="sans-serif" font-size="8.5" fill="#7EC8E370">Texture memory</text></g>
<g transform="translate(1490,248)"><rect width="158" height="88" rx="10" fill="rgba(126,200,227,0.05)" stroke="#7EC8E380" stroke-width="0.8"/><rect x="5" y="5" width="148" height="38" rx="7" fill="rgba(255,255,255,0.04)" stroke="#7EC8E330" stroke-width="0.6"/><text x="79" y="55" text-anchor="middle" font-family="sans-serif" font-size="11" font-weight="600" fill="#9FE1CB">Scan Integrator</text><text x="79" y="69" text-anchor="middle" font-family="sans-serif" font-size="8.5" fill="#7EC8E370">Photogrammetry</text></g>

<!-- ══════════════════════════════════ -->
<!-- NUCLEUS                           -->
<!-- ══════════════════════════════════ -->
<rect x="555" y="560" width="405" height="120" rx="60" fill="#080C14" stroke="#7EC8E3" stroke-width="2"/>
<text x="757" y="610" text-anchor="middle" font-family="sans-serif" font-size="20" font-weight="700" fill="#7EC8E3" letter-spacing="2">ALBERT CALLEJO AMAT</text>
<text x="757" y="635" text-anchor="middle" font-family="sans-serif" font-size="12" fill="#5599BB">Technical Artist · Animator · 3D · Barcelona</text>
<text x="757" y="655" text-anchor="middle" font-family="sans-serif" font-size="10" fill="#3A6688">artstation.com/albertcallejo</text>

<!-- ══════════════════════════════════ -->
<!-- SOFT & MINDSET — right isle      -->
<!-- ══════════════════════════════════ -->
<rect x="1882" y="465" width="275" height="250" rx="65" fill="rgba(44,44,42,0.15)" stroke="#7EC8E3" stroke-width="1.2"/>
<rect x="1932" y="408" width="180" height="110" rx="45" fill="rgba(44,44,42,0.15)" stroke="#7EC8E3" stroke-width="1.2"/>
<rect x="2092" y="632" width="110" height="100" rx="40" fill="rgba(44,44,42,0.15)" stroke="#7EC8E3" stroke-width="1.2"/>
<text x="1995" y="405" text-anchor="middle" font-family="sans-serif" font-size="15" font-weight="700" fill="#7EC8E3" letter-spacing="2">SOFT &amp; MINDSET</text>

<g transform="translate(1892,482)"><rect width="155" height="88" rx="10" fill="rgba(126,200,227,0.05)" stroke="#7EC8E380" stroke-width="0.8"/><rect x="5" y="5" width="145" height="38" rx="7" fill="rgba(255,255,255,0.04)" stroke="#7EC8E330" stroke-width="0.6"/><text x="77" y="55" text-anchor="middle" font-family="sans-serif" font-size="10.5" font-weight="600" fill="#D3D1C7">Translator Node</text><text x="77" y="69" text-anchor="middle" font-family="sans-serif" font-size="8.5" fill="#7EC8E370">Art↔programming</text></g>
<g transform="translate(1895,582)"><rect width="155" height="88" rx="10" fill="rgba(126,200,227,0.05)" stroke="#7EC8E380" stroke-width="0.8"/><rect x="5" y="5" width="145" height="38" rx="7" fill="rgba(255,255,255,0.04)" stroke="#7EC8E330" stroke-width="0.6"/><text x="77" y="55" text-anchor="middle" font-family="sans-serif" font-size="11" font-weight="600" fill="#D3D1C7">R&amp;D Scout</text><text x="77" y="69" text-anchor="middle" font-family="sans-serif" font-size="8.5" fill="#7EC8E370">New techniques</text></g>
<g transform="translate(1892,678)"><rect width="155" height="88" rx="10" fill="rgba(126,200,227,0.05)" stroke="#7EC8E380" stroke-width="0.8"/><rect x="5" y="5" width="145" height="38" rx="7" fill="rgba(255,255,255,0.04)" stroke="#7EC8E330" stroke-width="0.6"/><text x="77" y="55" text-anchor="middle" font-family="sans-serif" font-size="11" font-weight="600" fill="#D3D1C7">Solo Pipeline</text><text x="77" y="69" text-anchor="middle" font-family="sans-serif" font-size="8.5" fill="#7EC8E370">Full pipeline ownership</text></g>
<g transform="translate(1895,770)"><rect width="165" height="88" rx="10" fill="rgba(126,200,227,0.05)" stroke="#7EC8E380" stroke-width="0.8"/><rect x="5" y="5" width="155" height="38" rx="7" fill="rgba(255,255,255,0.04)" stroke="#7EC8E330" stroke-width="0.6"/><text x="82" y="55" text-anchor="middle" font-family="sans-serif" font-size="10" font-weight="600" fill="#D3D1C7">Multidisc. Receptor</text><text x="82" y="69" text-anchor="middle" font-family="sans-serif" font-size="8.5" fill="#7EC8E370">Adjacent domains</text></g>

<!-- ══════════════════════════════════ -->
<!-- REAL-TIME & ENGINES — bottom left-->
<!-- ══════════════════════════════════ -->
<rect x="388" y="862" width="430" height="270" rx="75" fill="rgba(38,33,92,0.15)" stroke="#7EC8E3" stroke-width="1.2"/>
<rect x="455" y="808" width="270" height="138" rx="55" fill="rgba(38,33,92,0.15)" stroke="#7EC8E3" stroke-width="1.2"/>
<rect x="758" y="998" width="145" height="155" rx="50" fill="rgba(38,33,92,0.15)" stroke="#7EC8E3" stroke-width="1.2"/>
<text x="602" y="805" text-anchor="middle" font-family="sans-serif" font-size="15" font-weight="700" fill="#7EC8E3" letter-spacing="2">REAL-TIME &amp; ENGINES</text>

<g transform="translate(400,825)"><rect width="158" height="88" rx="10" fill="rgba(126,200,227,0.05)" stroke="#7EC8E380" stroke-width="0.8"/><rect x="5" y="5" width="148" height="38" rx="7" fill="rgba(255,255,255,0.04)" stroke="#7EC8E330" stroke-width="0.6"/><text x="79" y="55" text-anchor="middle" font-family="sans-serif" font-size="10.5" font-weight="600" fill="#CECBF6">Engine Whisperer</text><text x="79" y="69" text-anchor="middle" font-family="sans-serif" font-size="8.5" fill="#7EC8E370">Deep engine knowledge</text></g>
<g transform="translate(572,818)"><rect width="155" height="88" rx="10" fill="rgba(126,200,227,0.05)" stroke="#7EC8E380" stroke-width="0.8"/><rect x="5" y="5" width="145" height="38" rx="7" fill="rgba(255,255,255,0.04)" stroke="#7EC8E330" stroke-width="0.6"/><text x="77" y="55" text-anchor="middle" font-family="sans-serif" font-size="11" font-weight="600" fill="#CECBF6">Particle Painter</text><text x="77" y="69" text-anchor="middle" font-family="sans-serif" font-size="8.5" fill="#7EC8E370">Real-time VFX</text></g>
<g transform="translate(402,922)"><rect width="155" height="88" rx="10" fill="rgba(126,200,227,0.05)" stroke="#7EC8E380" stroke-width="0.8"/><rect x="5" y="5" width="145" height="38" rx="7" fill="rgba(255,255,255,0.04)" stroke="#7EC8E330" stroke-width="0.6"/><text x="77" y="55" text-anchor="middle" font-family="sans-serif" font-size="11" font-weight="600" fill="#CECBF6">Shader Tailor</text><text x="77" y="69" text-anchor="middle" font-family="sans-serif" font-size="8.5" fill="#7EC8E370">Custom shaders</text></g>
<g transform="translate(570,915)"><rect width="155" height="88" rx="10" fill="rgba(126,200,227,0.05)" stroke="#7EC8E380" stroke-width="0.8"/><rect x="5" y="5" width="145" height="38" rx="7" fill="rgba(255,255,255,0.04)" stroke="#7EC8E330" stroke-width="0.6"/><text x="77" y="55" text-anchor="middle" font-family="sans-serif" font-size="11" font-weight="600" fill="#CECBF6">Virtual Director</text><text x="77" y="69" text-anchor="middle" font-family="sans-serif" font-size="8.5" fill="#7EC8E370">Engine as AV tool</text></g>
<g transform="translate(484,1012)"><rect width="158" height="88" rx="10" fill="rgba(126,200,227,0.05)" stroke="#7EC8E380" stroke-width="0.8"/><rect x="5" y="5" width="148" height="38" rx="7" fill="rgba(255,255,255,0.04)" stroke="#7EC8E330" stroke-width="0.6"/><text x="79" y="55" text-anchor="middle" font-family="sans-serif" font-size="11" font-weight="600" fill="#CECBF6">Mapping Wizard</text><text x="79" y="69" text-anchor="middle" font-family="sans-serif" font-size="8.5" fill="#7EC8E370">Architectural mapping</text></g>

<!-- ══════════════════════════════════ -->
<!-- CROSS-DISCIPLINARY — bottom right-->
<!-- ══════════════════════════════════ -->
<rect x="970" y="850" width="588" height="290" rx="80" fill="rgba(74,27,12,0.15)" stroke="#7EC8E3" stroke-width="1.2"/>
<rect x="1072" y="788" width="300" height="145" rx="60" fill="rgba(74,27,12,0.15)" stroke="#7EC8E3" stroke-width="1.2"/>
<rect x="1490" y="895" width="163" height="180" rx="55" fill="rgba(74,27,12,0.15)" stroke="#7EC8E3" stroke-width="1.2"/>
<rect x="948" y="990" width="125" height="130" rx="45" fill="rgba(74,27,12,0.15)" stroke="#7EC8E3" stroke-width="1.2"/>
<rect x="1382" y="782" width="138" height="188" rx="50" fill="rgba(74,27,12,0.15)" stroke="#7EC8E3" stroke-width="1.2"/>
<text x="1222" y="785" text-anchor="middle" font-family="sans-serif" font-size="15" font-weight="700" fill="#7EC8E3" letter-spacing="2">CROSS-DISCIPLINARY</text>

<g transform="translate(980,808)"><rect width="155" height="88" rx="10" fill="rgba(126,200,227,0.05)" stroke="#7EC8E380" stroke-width="0.8"/><rect x="5" y="5" width="145" height="38" rx="7" fill="rgba(255,255,255,0.04)" stroke="#7EC8E330" stroke-width="0.6"/><text x="77" y="55" text-anchor="middle" font-family="sans-serif" font-size="10.5" font-weight="600" fill="#F5C4B3">Generalist Sniper</text><text x="77" y="69" text-anchor="middle" font-family="sans-serif" font-size="8.5" fill="#7EC8E370">Any-role coverage</text></g>
<g transform="translate(1148,802)"><rect width="155" height="88" rx="10" fill="rgba(126,200,227,0.05)" stroke="#7EC8E380" stroke-width="0.8"/><rect x="5" y="5" width="145" height="38" rx="7" fill="rgba(255,255,255,0.04)" stroke="#7EC8E330" stroke-width="0.6"/><text x="77" y="55" text-anchor="middle" font-family="sans-serif" font-size="10.5" font-weight="600" fill="#F5C4B3">Rapid Prototyper</text><text x="77" y="69" text-anchor="middle" font-family="sans-serif" font-size="8.5" fill="#7EC8E370">Concepts in 48h</text></g>
<g transform="translate(1316,808)"><rect width="155" height="88" rx="10" fill="rgba(126,200,227,0.05)" stroke="#7EC8E380" stroke-width="0.8"/><rect x="5" y="5" width="145" height="38" rx="7" fill="rgba(255,255,255,0.04)" stroke="#7EC8E330" stroke-width="0.6"/><text x="77" y="55" text-anchor="middle" font-family="sans-serif" font-size="10" font-weight="600" fill="#F5C4B3">Live Show Gamifier</text><text x="77" y="69" text-anchor="middle" font-family="sans-serif" font-size="8.5" fill="#7EC8E370">AV show gamification</text></g>
<g transform="translate(982,908)"><rect width="155" height="88" rx="10" fill="rgba(126,200,227,0.05)" stroke="#7EC8E380" stroke-width="0.8"/><rect x="5" y="5" width="145" height="38" rx="7" fill="rgba(255,255,255,0.04)" stroke="#7EC8E330" stroke-width="0.6"/><text x="77" y="55" text-anchor="middle" font-family="sans-serif" font-size="10" font-weight="600" fill="#F5C4B3">Interactive Architect</text><text x="77" y="69" text-anchor="middle" font-family="sans-serif" font-size="8.5" fill="#7EC8E370">Interactive experiences</text></g>
<g transform="translate(1150,902)"><rect width="162" height="88" rx="10" fill="rgba(126,200,227,0.05)" stroke="#7EC8E380" stroke-width="0.8"/><rect x="5" y="5" width="152" height="38" rx="7" fill="rgba(255,255,255,0.04)" stroke="#7EC8E330" stroke-width="0.6"/><text x="81" y="55" text-anchor="middle" font-family="sans-serif" font-size="10" font-weight="600" fill="#F5C4B3">Visual Communicator</text><text x="81" y="69" text-anchor="middle" font-family="sans-serif" font-size="8.5" fill="#7EC8E370">Visual communication</text></g>
<g transform="translate(1325,905)"><rect width="155" height="88" rx="10" fill="rgba(126,200,227,0.05)" stroke="#7EC8E380" stroke-width="0.8"/><rect x="5" y="5" width="145" height="38" rx="7" fill="rgba(255,255,255,0.04)" stroke="#7EC8E330" stroke-width="0.6"/><text x="77" y="55" text-anchor="middle" font-family="sans-serif" font-size="10" font-weight="600" fill="#F5C4B3">Science Storyteller</text><text x="77" y="69" text-anchor="middle" font-family="sans-serif" font-size="8.5" fill="#7EC8E370">Scientific illustration</text></g>
<g transform="translate(982,1005)"><rect width="165" height="88" rx="10" fill="rgba(126,200,227,0.05)" stroke="#7EC8E380" stroke-width="0.8"/><rect x="5" y="5" width="155" height="38" rx="7" fill="rgba(255,255,255,0.04)" stroke="#7EC8E330" stroke-width="0.6"/><text x="82" y="55" text-anchor="middle" font-family="sans-serif" font-size="10" font-weight="600" fill="#F5C4B3">Point Cloud Sculptor</text><text x="82" y="69" text-anchor="middle" font-family="sans-serif" font-size="8.5" fill="#7EC8E370">3D data &amp; GIS viz</text></g>
<g transform="translate(1160,1000)"><rect width="155" height="88" rx="10" fill="rgba(126,200,227,0.05)" stroke="#7EC8E380" stroke-width="0.8"/><rect x="5" y="5" width="145" height="38" rx="7" fill="rgba(255,255,255,0.04)" stroke="#7EC8E330" stroke-width="0.6"/><text x="77" y="55" text-anchor="middle" font-family="sans-serif" font-size="11" font-weight="600" fill="#F5C4B3">Product Revealer</text><text x="77" y="69" text-anchor="middle" font-family="sans-serif" font-size="8.5" fill="#7EC8E370">Product 3D advertising</text></g>
<g transform="translate(1080,1098)"><rect width="155" height="88" rx="10" fill="rgba(126,200,227,0.05)" stroke="#7EC8E380" stroke-width="0.8"/><rect x="5" y="5" width="145" height="38" rx="7" fill="rgba(255,255,255,0.04)" stroke="#7EC8E330" stroke-width="0.6"/><text x="77" y="55" text-anchor="middle" font-family="sans-serif" font-size="11" font-weight="600" fill="#F5C4B3">Fluid Narrator</text><text x="77" y="69" text-anchor="middle" font-family="sans-serif" font-size="8.5" fill="#7EC8E370">Fluid simulations</text></g>
<g transform="translate(1250,1092)"><rect width="155" height="88" rx="10" fill="rgba(126,200,227,0.05)" stroke="#7EC8E380" stroke-width="0.8"/><rect x="5" y="5" width="145" height="38" rx="7" fill="rgba(255,255,255,0.04)" stroke="#7EC8E330" stroke-width="0.6"/><text x="77" y="55" text-anchor="middle" font-family="sans-serif" font-size="11" font-weight="600" fill="#F5C4B3">Data Sculptor</text><text x="77" y="69" text-anchor="middle" font-family="sans-serif" font-size="8.5" fill="#7EC8E370">Spatial data in 3D</text></g>

<!-- ══════════════════════════════════ -->
<!-- ISLANDS                           -->
<!-- ══════════════════════════════════ -->
<rect x="385" y="730" width="220" height="55" rx="27" fill="rgba(61,46,0,0.2)" stroke="#7EC8E3" stroke-width="1" opacity="0.8"/>
<text x="495" y="753" text-anchor="middle" font-family="sans-serif" font-size="12" font-weight="700" fill="#C9B060">Education</text>
<text x="495" y="769" text-anchor="middle" font-family="sans-serif" font-size="9" fill="#C9B06088">Master UPC · CIFO · SAE · Houdini</text>

<rect x="990" y="442" width="188" height="55" rx="27" fill="rgba(30,46,10,0.2)" stroke="#7EC8E3" stroke-width="1" opacity="0.8"/>
<text x="1084" y="465" text-anchor="middle" font-family="sans-serif" font-size="12" font-weight="700" fill="#8AB85A">Languages</text>
<text x="1084" y="481" text-anchor="middle" font-family="sans-serif" font-size="9" fill="#8AB85A88">CA · ES · FR · EN</text>

<rect x="990" y="680" width="220" height="55" rx="27" fill="rgba(26,10,46,0.2)" stroke="#7EC8E3" stroke-width="1" opacity="0.8"/>
<text x="1100" y="703" text-anchor="middle" font-family="sans-serif" font-size="12" font-weight="700" fill="#9A78C0">Hobbies</text>
<text x="1100" y="719" text-anchor="middle" font-family="sans-serif" font-size="9" fill="#9A78C088">RC Flight · Archery · DIY · Music</text>

<rect x="1705" y="410" width="220" height="55" rx="27" fill="rgba(10,26,42,0.2)" stroke="#7EC8E3" stroke-width="1" opacity="0.8"/>
<text x="1815" y="433" text-anchor="middle" font-family="sans-serif" font-size="12" font-weight="700" fill="#5599BB">Links</text>
<text x="1815" y="449" text-anchor="middle" font-family="sans-serif" font-size="9" fill="#5599BB88">ArtStation · electricavisuals · gumroad</text>

</svg>
